<svg width="251" height="50" viewBox="0 0 251 50" fill="none" xmlns="http://www.w3.org/2000/svg">
<path d="M99.1667 11.7775H70.8884C69.9568 11.7775 69.2021 11.0228 69.2021 10.0912V5.62187C69.2021 4.69026 69.9568 3.93555 70.8884 3.93555H99.1667C100.098 3.93555 100.853 4.69026 100.853 5.62187V10.0912C100.849 11.0228 100.094 11.7775 99.1667 11.7775Z" fill="#FBB901"/>
<path d="M90.059 46.0615H61.7807C60.8491 46.0615 60.0944 45.3067 60.0944 44.3751V39.9058C60.0944 38.9742 60.8491 38.2195 61.7807 38.2195H90.059C90.9906 38.2195 91.7453 38.9742 91.7453 39.9058V44.3751C91.7453 45.3067 90.9906 46.0615 90.059 46.0615Z" fill="#00A8B5"/>
<path d="M94.6586 28.9194H66.3803C65.4487 28.9194 64.694 28.1647 64.694 27.2331V22.7637C64.694 21.8321 65.4487 21.0774 66.3803 21.0774H94.6586C95.5902 21.0774 96.3449 21.8321 96.3449 22.7637V27.2331C96.341 28.1647 95.5902 28.9194 94.6586 28.9194Z" fill="#F12D2D"/>
<path d="M45.4687 46.0614L45.4098 20.7862L33.012 41.6077H28.6173L16.2824 21.3287V46.0614H7.13541V3.93872H15.1975L30.964 30.118L46.4907 3.93872H54.4939L54.6157 46.0653H45.4687V46.0614Z" fill="white"/>
<path d="M135.619 46.0614L127.494 34.3279H127.014H118.528V46.0614H108.779V3.93872H127.014C130.745 3.93872 133.984 4.55979 136.731 5.80586C139.479 7.048 141.594 8.81293 143.08 11.1007C144.562 13.3884 145.304 16.0967 145.304 19.2257C145.304 22.3546 144.554 25.0551 143.048 27.3192C141.543 29.5873 139.408 31.3208 136.641 32.5236L146.091 46.0653H135.619V46.0614ZM133.15 13.7776C131.625 12.5158 129.4 11.8829 126.472 11.8829H118.528V26.5684H126.472C129.4 26.5684 131.625 25.9277 133.15 24.6423C134.676 23.357 135.438 21.5527 135.438 19.2257C135.438 16.8554 134.676 15.0393 133.15 13.7776Z" fill="white"/>
<path d="M153.008 3.93872H162.756V46.0653H153.008V3.93872Z" fill="white"/>
<path d="M176.926 45.428C173.816 44.5239 171.32 43.3525 169.434 41.906L172.743 34.5632C174.548 35.8879 176.694 36.9492 179.182 37.7511C181.67 38.553 184.154 38.9539 186.643 38.9539C189.41 38.9539 191.458 38.5412 192.783 37.7196C194.107 36.8981 194.768 35.8053 194.768 34.4413C194.768 33.439 194.375 32.6056 193.592 31.9453C192.81 31.2849 191.808 30.7503 190.585 30.3494C189.363 29.9484 187.708 29.5082 185.621 29.0247C182.409 28.2621 179.783 27.4995 177.735 26.7369C175.688 25.9744 173.934 24.7519 172.468 23.0655C171.002 21.3792 170.271 19.1347 170.271 16.3242C170.271 13.8792 170.931 11.6622 172.256 9.67325C173.581 7.68819 175.574 6.11193 178.243 4.94841C180.912 3.78489 184.17 3.20312 188.022 3.20312C190.711 3.20312 193.337 3.52545 195.908 4.16618C198.474 4.8069 200.723 5.73064 202.649 6.93347L199.646 14.347C195.754 12.1418 191.863 11.0372 187.971 11.0372C185.243 11.0372 183.227 11.4775 181.922 12.3619C180.617 13.2464 179.964 14.4099 179.964 15.8525C179.964 17.2951 180.715 18.3722 182.221 19.0718C183.726 19.7755 186.022 20.4673 189.111 21.1473C192.319 21.9099 194.949 22.6725 196.996 23.435C199.044 24.1976 200.798 25.4005 202.264 27.0475C203.726 28.6945 204.461 30.9193 204.461 33.7259C204.461 36.1316 203.789 38.3289 202.445 40.314C201.1 42.299 199.084 43.8753 196.395 45.0388C193.706 46.2023 190.436 46.7841 186.588 46.7841C183.254 46.7841 180.035 46.3321 176.926 45.428Z" fill="white"/>
<path d="M242.986 38.239V46.0614H210.368V3.93872H242.204V11.761H220.057V20.9081H239.617V28.4906H220.057V38.239H242.986Z" fill="white"/>
</svg>
